<svg width="124" height="57" viewBox="0 0 124 57" fill="none" xmlns="http://www.w3.org/2000/svg">
<path d="M33.5 10L35.276 25.4239L49.5215 19.25L37.052 28.5L49.5215 37.75L35.276 31.5761L33.5 47L31.724 31.5761L17.4785 37.75L29.948 28.5L17.4785 19.25L31.724 25.4239L33.5 10Z" fill="url(#paint0_linear_52_7)"/>
<path d="M60 34.256C58.9653 34.256 58.0427 34.0213 57.232 33.552C56.432 33.0827 55.8027 32.4053 55.344 31.52C54.896 30.6347 54.672 29.5733 54.672 28.336C54.672 27.1307 54.8907 26.0853 55.328 25.2C55.7653 24.304 56.3893 23.6107 57.2 23.12C58.0107 22.6293 58.96 22.384 60.048 22.384C61.5307 22.384 62.6827 22.752 63.504 23.488C64.336 24.2133 64.8693 25.2533 65.104 26.608L62.576 26.704C62.448 25.9893 62.1707 25.4347 61.744 25.04C61.3173 24.6347 60.752 24.432 60.048 24.432C59.44 24.432 58.9227 24.592 58.496 24.912C58.0693 25.232 57.744 25.6853 57.52 26.272C57.296 26.8587 57.184 27.5467 57.184 28.336C57.184 29.136 57.296 29.8293 57.52 30.416C57.7547 30.992 58.0853 31.4347 58.512 31.744C58.9387 32.0533 59.4453 32.208 60.032 32.208C60.8 32.208 61.392 31.9947 61.808 31.568C62.2347 31.1307 62.5013 30.528 62.608 29.76L65.152 29.856C65.0027 30.784 64.7093 31.5733 64.272 32.224C63.8347 32.8747 63.2587 33.376 62.544 33.728C61.84 34.08 60.992 34.256 60 34.256ZM68.9437 34L64.8477 22.64H67.3598L70.3837 31.264L73.4078 22.64H75.9198L71.8078 34H68.9437ZM76.0497 34V25.424H78.4497V34H76.0497ZM76.0017 24.368V22.448H78.4817V24.368H76.0017ZM83.2575 34.192C82.3722 34.192 81.6308 34.0693 81.0335 33.824C80.4362 33.568 79.9775 33.2267 79.6575 32.8C79.3482 32.3627 79.1722 31.8613 79.1295 31.296L81.5615 31.216C81.6362 31.6213 81.8068 31.936 82.0735 32.16C82.3402 32.384 82.7348 32.496 83.2575 32.496C83.6842 32.496 84.0148 32.4267 84.2495 32.288C84.4948 32.1493 84.6175 31.936 84.6175 31.648C84.6175 31.4667 84.5748 31.3173 84.4895 31.2C84.4042 31.072 84.2335 30.9653 83.9775 30.88C83.7322 30.784 83.3642 30.6987 82.8735 30.624C81.9668 30.464 81.2575 30.2773 80.7455 30.064C80.2335 29.8507 79.8708 29.5733 79.6575 29.232C79.4442 28.8907 79.3375 28.4747 79.3375 27.984C79.3375 27.1627 79.6522 26.5013 80.2815 26C80.9215 25.488 81.8762 25.232 83.1455 25.232C83.9562 25.232 84.6335 25.36 85.1775 25.616C85.7322 25.872 86.1588 26.224 86.4575 26.672C86.7668 27.1093 86.9588 27.6107 87.0335 28.176L84.6175 28.272C84.5855 27.9947 84.5002 27.76 84.3615 27.568C84.2335 27.3653 84.0682 27.2107 83.8655 27.104C83.6628 26.9867 83.4175 26.928 83.1295 26.928C82.7028 26.928 82.3722 27.0187 82.1375 27.2C81.9135 27.3707 81.8015 27.6 81.8015 27.888C81.8015 28.1013 81.8495 28.2773 81.9455 28.416C82.0522 28.544 82.2228 28.6507 82.4575 28.736C82.6922 28.8213 83.0068 28.8907 83.4015 28.944C84.3188 29.072 85.0442 29.2533 85.5775 29.488C86.1215 29.712 86.5108 29.9947 86.7455 30.336C86.9802 30.6773 87.0975 31.0987 87.0975 31.6C87.0975 32.1547 86.9375 32.624 86.6175 33.008C86.2975 33.392 85.8495 33.6853 85.2735 33.888C84.7082 34.0907 84.0362 34.192 83.2575 34.192ZM87.7779 34V25.424H90.1779V34H87.7779ZM87.7299 24.368V22.448H90.2099V24.368H87.7299ZM95.2096 34.192C94.335 34.192 93.5723 34.0107 92.9216 33.648C92.271 33.2747 91.7643 32.752 91.4016 32.08C91.039 31.408 90.8576 30.6187 90.8576 29.712C90.8576 28.8053 91.039 28.0213 91.4016 27.36C91.7643 26.688 92.271 26.1653 92.9216 25.792C93.5723 25.4187 94.335 25.232 95.2096 25.232C96.0843 25.232 96.847 25.4187 97.4976 25.792C98.1483 26.1653 98.655 26.688 99.0176 27.36C99.3803 28.0213 99.5616 28.8053 99.5616 29.712C99.5616 30.6187 99.3803 31.408 99.0176 32.08C98.655 32.752 98.1483 33.2747 97.4976 33.648C96.847 34.0107 96.0843 34.192 95.2096 34.192ZM95.2096 32.352C95.807 32.352 96.271 32.1227 96.6016 31.664C96.9323 31.1947 97.0976 30.544 97.0976 29.712C97.0976 28.88 96.9323 28.2347 96.6016 27.776C96.271 27.3067 95.807 27.072 95.2096 27.072C94.6123 27.072 94.1483 27.3067 93.8176 27.776C93.487 28.2347 93.3216 28.88 93.3216 29.712C93.3216 30.544 93.487 31.1947 93.8176 31.664C94.1483 32.1227 94.6123 32.352 95.2096 32.352ZM100.256 34V25.424H102.416L102.512 27.936L102.208 27.856C102.293 27.216 102.464 26.704 102.72 26.32C102.987 25.936 103.317 25.6587 103.712 25.488C104.107 25.3173 104.539 25.232 105.008 25.232C105.627 25.232 106.149 25.3653 106.576 25.632C107.013 25.8987 107.344 26.2773 107.568 26.768C107.803 27.248 107.92 27.8187 107.92 28.48V34H105.52V29.28C105.52 28.8213 105.483 28.432 105.408 28.112C105.333 27.792 105.2 27.552 105.008 27.392C104.816 27.2213 104.549 27.136 104.208 27.136C103.707 27.136 103.323 27.3227 103.056 27.696C102.789 28.0587 102.656 28.5867 102.656 29.28V34H100.256Z" fill="white"/>
<defs>
<linearGradient id="paint0_linear_52_7" x1="33.5" y1="10" x2="33.5" y2="47" gradientUnits="userSpaceOnUse">
<stop stop-color="white"/>
<stop offset="1" stop-color="#666666"/>
</linearGradient>
</defs>
</svg>
